<svg width="362" height="594" viewBox="0 0 362 594" fill="none" xmlns="http://www.w3.org/2000/svg">
<g filter="url(#filter0_f_1_7907)">
<path d="M505.163 490.462L368.451 401.548L402.255 561.118L307.205 581.254L273.401 421.684L184.487 558.395L103.042 505.425L191.956 368.714L32.3861 402.518L12.2502 307.467L171.82 273.663L35.1088 184.749L88.0788 103.304L224.79 192.218L190.986 32.6486L286.037 12.5127L319.841 172.083L408.755 35.3714L490.2 88.3414L401.286 225.053L560.855 191.249L580.991 286.299L421.421 320.103L558.133 409.017L505.163 490.462Z" fill="url(#paint0_linear_1_7907)"/>
</g>
<defs>
<filter id="filter0_f_1_7907" x="0.25" y="0.512756" width="592.741" height="592.741" filterUnits="userSpaceOnUse" color-interpolation-filters="sRGB">
<feFlood flood-opacity="0" result="BackgroundImageFix"/>
<feBlend mode="normal" in="SourceGraphic" in2="BackgroundImageFix" result="shape"/>
<feGaussianBlur stdDeviation="6" result="effect1_foregroundBlur_1_7907"/>
</filter>
<linearGradient id="paint0_linear_1_7907" x1="449.477" y1="61.8564" x2="143.764" y2="531.91" gradientUnits="userSpaceOnUse">
<stop stop-color="#1D2328"/>
<stop offset="1" stop-color="#1D2328" stop-opacity="0"/>
</linearGradient>
</defs>
</svg>
