<svg width="28" height="28" viewBox="0 0 28 28" fill="none" xmlns="http://www.w3.org/2000/svg">
<path d="M2.89062 14.0676C2.89192 19.5673 6.86663 24.25 12.2651 25.1119V17.2985H9.44618V14.0676H12.2684V11.6081C12.1422 10.4427 12.5379 9.28122 13.348 8.43867C14.1581 7.59611 15.2988 7.15982 16.4606 7.24812C17.2946 7.26167 18.1264 7.3364 18.9495 7.47171V10.2208H17.5451C17.0616 10.157 16.5755 10.3177 16.2237 10.6575C15.8719 10.9973 15.6926 11.4794 15.7362 11.9681V14.0676H18.8151L18.3228 17.2996H15.7362V25.1119C21.5745 24.1835 25.6685 18.8187 25.0523 12.9039C24.4361 6.98917 19.3254 2.59513 13.4227 2.90508C7.51992 3.21503 2.89156 8.12047 2.89062 14.0676Z" fill="white"/>
</svg>
