<svg width="26" height="26" viewBox="0 0 26 26" fill="none" xmlns="http://www.w3.org/2000/svg">
<g clip-path="url(#clip0_1_3148)">
<path d="M24.2449 14.5684V18.3549C24.2449 18.3985 24.244 18.4422 24.2415 18.4858C24.2406 18.4944 24.2406 18.5038 24.2397 18.5123C24.238 18.538 24.2363 18.5637 24.2338 18.5902C24.2312 18.6159 24.2286 18.6415 24.2252 18.6672C24.2226 18.692 24.2184 18.7169 24.2149 18.7408C24.2089 18.7776 24.203 18.8135 24.1953 18.8503C24.191 18.8734 24.1858 18.8957 24.1807 18.9188C24.1756 18.9385 24.1704 18.959 24.1653 18.9796C24.161 18.9984 24.1559 19.0163 24.1499 19.0352C24.1268 19.1182 24.0986 19.2003 24.066 19.2808C24.0592 19.2979 24.0524 19.3158 24.0446 19.333C24.025 19.38 24.0036 19.4262 23.9805 19.4716C23.9693 19.4947 23.9574 19.5169 23.9454 19.5392L23.9445 19.5383L19.6609 17.1543L12.9521 13.42L17.9974 11.0977L24.1542 14.5188L24.2449 14.5684Z" fill="url(#paint0_linear_1_3148)"/>
<path d="M24.1673 7.50126L22.8615 8.50756L21.7054 10.3251L10.7139 4.20679L14.8906 1.27344L17.4149 2.73156H17.4157L22.0417 5.40221L22.9992 5.955C23.5888 6.29557 24.0047 6.85691 24.1673 7.50126Z" fill="url(#paint1_linear_1_3148)"/>
<path d="M17.4162 2.73189L1.5249 11.8357V8.11C1.5249 7.22092 1.99896 6.39944 2.76824 5.95533L11.641 0.833083C12.4103 0.388972 13.3584 0.388972 14.1286 0.833083L17.4162 2.73189Z" fill="#21E786"/>
<path d="M24.2439 8.10979V9.40276L3.71636 21.0566L2.76824 20.509C1.99896 20.064 1.5249 19.2434 1.5249 18.3543V17.0639L22.043 5.40234L23.0005 5.95513C23.7698 6.39924 24.2439 7.22072 24.2439 8.10979Z" fill="#21E786"/>
<path d="M24.2449 14.4648V18.354C24.2449 18.3977 24.244 18.4413 24.2414 18.4849C24.2406 18.4935 24.2406 18.5029 24.2397 18.5115C24.238 18.5371 24.2363 18.5628 24.2337 18.5893C24.2312 18.615 24.2286 18.6407 24.2252 18.6664C24.2226 18.6912 24.2183 18.716 24.2149 18.7399C24.2089 18.7767 24.2029 18.8127 24.1952 18.8495C24.191 18.8726 24.1858 18.8948 24.1807 18.9179C24.1756 18.9376 24.1704 18.9581 24.1653 18.9787C24.161 18.9975 24.1559 19.0155 24.1499 19.0343C24.1268 19.1173 24.0985 19.1995 24.066 19.2799C24.0592 19.297 24.0523 19.315 24.0446 19.3321C24.025 19.3792 24.0036 19.4254 23.9805 19.4707C23.9693 19.4938 23.9574 19.5161 23.9454 19.5383C23.9317 19.5631 23.918 19.5879 23.9034 19.6119C23.8898 19.6367 23.8743 19.6607 23.8598 19.6846C23.829 19.7317 23.7973 19.7788 23.764 19.8241C23.7297 19.8703 23.6947 19.9148 23.6587 19.9576C23.6399 19.9799 23.6211 20.0013 23.6022 20.0218C23.5834 20.0432 23.5637 20.0637 23.544 20.0843C23.5047 20.1253 23.4636 20.1655 23.4208 20.2032C23.4046 20.2186 23.3875 20.2331 23.3703 20.2477C23.3601 20.2563 23.3498 20.2648 23.3395 20.2734C23.319 20.2913 23.2976 20.3085 23.2754 20.3247C23.254 20.3418 23.2326 20.3581 23.2095 20.3735C23.1667 20.4051 23.1222 20.4351 23.0768 20.4633C23.052 20.4787 23.0272 20.4941 23.0015 20.5087L14.1296 25.6309C13.3594 26.075 12.4113 26.075 11.642 25.6309L8.39722 23.7578L19.6609 17.1535L24.1542 14.5179L24.2449 14.4648Z" fill="#21E786"/>
<path d="M5.98655 4.09766V22.367L3.71636 21.0569L2.76824 20.5092C1.99896 20.0643 1.5249 19.2436 1.5249 18.3546V8.11006C1.5249 7.22098 1.99896 6.3995 2.76824 5.95539L5.98655 4.09766Z" fill="#21E786"/>
</g>
<defs>
<linearGradient id="paint0_linear_1_3148" x1="23.5603" y1="17.358" x2="14.4471" y2="11.1113" gradientUnits="userSpaceOnUse">
<stop stop-color="#00FFA3"/>
<stop offset="1" stop-color="#00FFA3" stop-opacity="0"/>
</linearGradient>
<linearGradient id="paint1_linear_1_3148" x1="22.0605" y1="8.71464" x2="13.803" y2="3.36648" gradientUnits="userSpaceOnUse">
<stop stop-color="#00FFA3"/>
<stop offset="1" stop-color="#00FFA3" stop-opacity="0"/>
</linearGradient>
<clipPath id="clip0_1_3148">
<rect width="22.95" height="25.5" fill="white" transform="translate(1.5249 0.5)"/>
</clipPath>
</defs>
</svg>
