<svg width="24" height="28" viewBox="0 0 24 28" fill="none" xmlns="http://www.w3.org/2000/svg">
<g clip-path="url(#clip0_1_2781)">
<path d="M23.7586 15.2116V19.1713C23.7586 19.2169 23.7577 19.2626 23.755 19.3082C23.7541 19.3172 23.7541 19.327 23.7532 19.3359C23.7515 19.3628 23.7497 19.3896 23.747 19.4174C23.7443 19.4442 23.7416 19.4711 23.738 19.4979C23.7353 19.5239 23.7309 19.5498 23.7273 19.5749C23.721 19.6134 23.7148 19.6509 23.7067 19.6894C23.7022 19.7136 23.6969 19.7368 23.6915 19.761C23.6861 19.7816 23.6808 19.8031 23.6754 19.8245C23.6709 19.8442 23.6656 19.863 23.6593 19.8827C23.6351 19.9695 23.6056 20.0554 23.5716 20.1395C23.5644 20.1574 23.5573 20.1762 23.5492 20.1941C23.5286 20.2433 23.5063 20.2917 23.4821 20.3391C23.4705 20.3632 23.4579 20.3865 23.4454 20.4098L23.4445 20.4089L18.9649 17.9158L11.9492 14.0107L17.2253 11.582L23.6638 15.1597L23.7586 15.2116Z" fill="url(#paint0_linear_1_2781)"/>
<path d="M23.6793 7.82183L22.3137 8.87418L21.1048 10.7749L9.61035 4.37664L13.9781 1.30908L16.618 2.83391H16.6189L21.4564 5.62676L22.4578 6.20483C23.0743 6.56098 23.5092 7.14801 23.6793 7.82183Z" fill="url(#paint1_linear_1_2781)"/>
<path d="M16.6183 2.834L0 12.3544V8.45817C0 7.52841 0.495749 6.66935 1.30022 6.20492L10.579 0.848322C11.3834 0.383893 12.3749 0.383893 13.1803 0.848322L16.6183 2.834Z" fill="#21E786"/>
<path d="M23.7584 8.83132V10.1834L2.29172 22.3705L1.30022 21.7978C0.495749 21.3324 0 20.4743 0 19.5445V18.1951L21.4568 6L22.4582 6.57808C23.2626 7.04251 23.7584 7.90157 23.7584 8.83132Z" fill="#21E786"/>
<path d="M23.7583 15.104V19.1711C23.7583 19.2168 23.7574 19.2624 23.7547 19.308C23.7538 19.317 23.7538 19.3268 23.7529 19.3358C23.7511 19.3626 23.7493 19.3895 23.7466 19.4172C23.7439 19.444 23.7413 19.4709 23.7377 19.4977C23.735 19.5237 23.7305 19.5496 23.7269 19.5747C23.7207 19.6132 23.7144 19.6508 23.7064 19.6892C23.7019 19.7134 23.6965 19.7367 23.6911 19.7608C23.6858 19.7814 23.6804 19.8029 23.675 19.8244C23.6706 19.844 23.6652 19.8628 23.6589 19.8825C23.6348 19.9693 23.6052 20.0552 23.5712 20.1394C23.5641 20.1572 23.5569 20.176 23.5489 20.1939C23.5283 20.2432 23.5059 20.2915 23.4817 20.3389C23.4701 20.3631 23.4576 20.3863 23.4451 20.4096C23.4307 20.4355 23.4164 20.4615 23.4012 20.4866C23.3869 20.5125 23.3708 20.5376 23.3556 20.5626C23.3234 20.6118 23.2902 20.6611 23.2553 20.7085C23.2196 20.7568 23.1829 20.8033 23.1453 20.8481C23.1256 20.8713 23.1059 20.8937 23.0862 20.9152C23.0665 20.9376 23.0459 20.959 23.0254 20.9805C22.9842 21.0235 22.9413 21.0655 22.8965 21.1049C22.8795 21.121 22.8616 21.1362 22.8437 21.1514C22.833 21.1604 22.8222 21.1693 22.8115 21.1783C22.79 21.1971 22.7676 21.215 22.7444 21.232C22.722 21.2499 22.6996 21.2669 22.6755 21.283C22.6307 21.3161 22.5842 21.3474 22.5368 21.3769C22.5108 21.393 22.4849 21.4091 22.458 21.4244L13.1802 26.781C12.3748 27.2454 11.3833 27.2454 10.5788 26.781L7.18555 24.8221L18.9645 17.9156L23.6634 15.1595L23.7583 15.104Z" fill="#21E786"/>
<path d="M5 4V24L2.45589 22.5658L1.39336 21.9663C0.531262 21.4792 0 20.5808 0 19.6075V8.39251C0 7.4192 0.531262 6.51991 1.39336 6.03372L5 4Z" fill="#21E786"/>
</g>
<defs>
<linearGradient id="paint0_linear_1_2781" x1="23.0427" y1="18.1288" x2="13.5125" y2="11.5963" gradientUnits="userSpaceOnUse">
<stop stop-color="#00FFA3"/>
<stop offset="1" stop-color="#00FFA3" stop-opacity="0"/>
</linearGradient>
<linearGradient id="paint1_linear_1_2781" x1="21.4761" y1="9.09073" x2="12.8408" y2="3.49789" gradientUnits="userSpaceOnUse">
<stop stop-color="#00FFA3"/>
<stop offset="1" stop-color="#00FFA3" stop-opacity="0"/>
</linearGradient>
<clipPath id="clip0_1_2781">
<rect width="24" height="27" fill="white" transform="translate(0 0.5)"/>
</clipPath>
</defs>
</svg>
